<svg width="15" height="15" viewBox="0 0 15 15" fill="none" xmlns="http://www.w3.org/2000/svg">
<path d="M13.7944 0H1.20563C0.54 0 0 0.54 0 1.20563V13.7944C0 14.46 0.54 15 1.20563 15H13.7944C14.46 15 15 14.46 15 13.7944V1.20563C15 0.54 14.46 0 13.7944 0ZM13.7944 13.8C5.39813 13.7981 1.2 13.7963 1.2 13.7944C1.20188 5.39813 1.20375 1.2 1.20563 1.2C9.60188 1.20188 13.8 1.20375 13.8 1.20563C13.7981 9.60188 13.7963 13.8 13.7944 13.8ZM2.22375 5.62313H4.44938V12.7819H2.22375V5.62313ZM3.3375 4.64438C4.04813 4.64438 4.6275 4.06687 4.6275 3.35438C4.6275 3.18497 4.59413 3.01722 4.5293 2.86071C4.46448 2.7042 4.36946 2.562 4.24967 2.44221C4.12988 2.32242 3.98767 2.2274 3.83116 2.16257C3.67465 2.09774 3.50691 2.06438 3.3375 2.06438C3.16809 2.06438 3.00035 2.09774 2.84384 2.16257C2.68733 2.2274 2.54512 2.32242 2.42533 2.44221C2.30554 2.562 2.21052 2.7042 2.1457 2.86071C2.08087 3.01722 2.0475 3.18497 2.0475 3.35438C2.04562 4.06687 2.62313 4.64438 3.3375 4.64438ZM8.06812 9.24C8.06812 8.30625 8.24625 7.4025 9.40313 7.4025C10.5431 7.4025 10.56 8.46938 10.56 9.3V12.7819H12.7838V8.85563C12.7838 6.92812 12.3675 5.445 10.1156 5.445C9.03375 5.445 8.30813 6.03938 8.01 6.60188H7.98V5.62313H5.84438V12.7819H8.06812V9.24Z" fill="white"/>
</svg>
